<svg width="26" height="31" viewBox="0 0 26 31" fill="none" xmlns="http://www.w3.org/2000/svg">
<path d="M22.1531 18.5836C24.0678 18.5836 25.62 20.1358 25.62 22.0507V23.4666C25.62 24.3505 25.3437 25.2123 24.8297 25.9315C22.4466 29.2665 18.555 30.9187 13.282 30.9187C8.00798 30.9187 4.11842 29.2658 1.74092 25.9291C1.22914 25.2108 0.954102 24.3509 0.954102 23.4689V22.0507C0.954102 20.1358 2.50633 18.5836 4.42111 18.5836H22.1531ZM13.282 0.0908508C17.5392 0.0908508 20.9903 3.54199 20.9903 7.79918C20.9903 12.0564 17.5392 15.5075 13.282 15.5075C9.02477 15.5075 5.57364 12.0564 5.57364 7.79918C5.57364 3.54199 9.02477 0.0908508 13.282 0.0908508Z" fill="url(#paint0_linear_29_592)"/>
<defs>
<linearGradient id="paint0_linear_29_592" x1="0.782227" y1="16" x2="25.7822" y2="16" gradientUnits="userSpaceOnUse">
<stop stop-color="#F65E7E"/>
<stop offset="1" stop-color="#4335E5"/>
</linearGradient>
</defs>
</svg>
