<svg width="18" height="19" viewBox="0 0 18 19" fill="none" xmlns="http://www.w3.org/2000/svg">
<path d="M8.8834 0.404344L9 0.397614C9.5128 0.397614 9.9355 0.783653 9.9933 1.28099L10 1.39761V8.39761H17C17.5128 8.39761 17.9355 8.78361 17.9933 9.28101L18 9.39761C18 9.91041 17.614 10.3331 17.1166 10.3909L17 10.3976H10V17.3976C10 17.9104 9.614 18.3331 9.1166 18.3909L9 18.3976C8.4872 18.3976 8.0645 18.0116 8.0067 17.5142L8 17.3976V10.3976H1C0.48716 10.3976 0.0644901 10.0116 0.00673008 9.51421L0 9.39761C0 8.88481 0.38604 8.46211 0.88338 8.40431L1 8.39761H8V1.39761C8 0.884774 8.386 0.462104 8.8834 0.404344L9 0.397614L8.8834 0.404344Z" fill="white"/>
</svg>
