<svg width="24" height="24" viewBox="0 0 24 24" fill="none" xmlns="http://www.w3.org/2000/svg">
<path d="M11.8546 2.50756L11.8401 2.5084L11.8257 2.51007C11.0791 2.59677 10.5 3.2304 10.5 4V10.5H4H3.98565L3.97132 10.5008L3.8547 10.5075L3.84014 10.5084L3.82566 10.51C3.07915 10.5968 2.5 11.2304 2.5 12V12.0144L2.50083 12.0288L2.50756 12.1454L2.5084 12.1599L2.51007 12.1743C2.59677 12.9209 3.2304 13.5 4 13.5H10.5V20V20.0144L10.5008 20.0287L10.5075 20.1453L10.5084 20.1598L10.51 20.1743C10.5968 20.9209 11.2304 21.5 12 21.5H12.0144L12.0287 21.4992L12.1453 21.4925L12.1598 21.4916L12.1743 21.49C12.9209 21.4032 13.5 20.7696 13.5 20V13.5H20H20.0144L20.0287 13.4992L20.1453 13.4925L20.1598 13.4916L20.1743 13.49C20.9209 13.4032 21.5 12.7696 21.5 12V11.9856L21.4992 11.9713L21.4925 11.8547L21.4916 11.8402L21.49 11.8257C21.4032 11.0791 20.7696 10.5 20 10.5H13.5V4V3.98565L13.4992 3.97132L13.4925 3.8547L13.4916 3.84014L13.49 3.82566C13.4032 3.07915 12.7696 2.5 12 2.5H11.9856L11.9712 2.50083L11.8546 2.50756Z" fill="#212121" stroke="black"/>
</svg>
