<svg width="18" height="18" viewBox="0 0 18 18" fill="none" xmlns="http://www.w3.org/2000/svg">
<path d="M8.5582 10.6469L8.4746 10.7179L1.54692 17.5186C2.04216 17.8239 2.62551 18 3.25 18H14.75C15.3745 18 15.9578 17.8239 16.4531 17.5186L9.5254 10.7179L9.432 10.6399C9.1705 10.4552 8.8174 10.4576 8.5582 10.6469ZM18 3.25C18 1.45507 16.5449 0 14.75 0H3.25C1.45507 0 0 1.45507 0 3.25V14.75C0 15.3771 0.17758 15.9626 0.4852 16.4592L7.4238 9.6475L7.5592 9.5248C8.3941 8.8273 9.615 8.8293 10.4477 9.5306L10.5762 9.6475L17.5148 16.4592C17.8224 15.9626 18 15.3771 18 14.75V3.25ZM12.25 7.75C11.1454 7.75 10.25 6.85457 10.25 5.75C10.25 4.64543 11.1454 3.75 12.25 3.75C13.3546 3.75 14.25 4.64543 14.25 5.75C14.25 6.85457 13.3546 7.75 12.25 7.75Z" fill="#999999"/>
</svg>
