<svg width="108" height="100" viewBox="0 0 108 100" fill="none" xmlns="http://www.w3.org/2000/svg">
<path d="M47.866 18.8047C50.3994 17.3421 53.518 17.3302 56.062 18.7739L61.1908 21.6835L67.7661 17.8872C73.4657 14.5966 80.7539 16.5494 84.0446 22.249L101.461 52.4157C104.752 58.1153 102.799 65.4035 97.0995 68.6942L54.2313 93.4442C48.5316 96.7349 41.2435 94.7819 37.9528 89.0824L20.5361 58.9157C17.2454 53.216 19.1982 45.9279 24.8979 42.6372L31.5041 38.8231L31.67 32.697C31.7477 29.8302 33.3085 27.2095 35.7921 25.7756L47.866 18.8047ZM51.832 39.7885C43.9402 44.3448 41.2363 54.4362 45.7927 62.328C50.3489 70.2196 60.4403 72.9238 68.3321 68.3675C76.224 63.8111 78.9277 53.7196 74.3715 45.828C69.8151 37.9362 59.7239 35.2321 51.832 39.7885ZM54.582 44.5516C59.8434 41.514 66.5707 43.3167 69.6084 48.578C72.6458 53.8391 70.8434 60.5667 65.5821 63.6043C60.3207 66.642 53.5933 64.8391 50.5558 59.578C47.5182 54.3167 49.3206 47.5893 54.582 44.5516Z" fill="white" fill-opacity="0.4"/>
<path d="M37.866 14.8047C40.3994 13.3421 43.518 13.3302 46.062 14.7739L51.1908 17.6835L57.7661 13.8872C63.4657 10.5966 70.7539 12.5494 74.0446 18.249L91.4613 48.4157C94.752 54.1153 92.7991 61.4035 87.0995 64.6942L44.2313 89.4442C38.5316 92.7349 31.2435 90.7819 27.9528 85.0824L10.5361 54.9157C7.24537 49.216 9.19821 41.9279 14.8979 38.6372L21.5041 34.8231L21.67 28.697C21.7477 25.8302 23.3085 23.2095 25.7921 21.7756L37.866 14.8047ZM41.832 35.7885C33.9402 40.3448 31.2363 50.4362 35.7927 58.328C40.3489 66.2196 50.4403 68.9238 58.3321 64.3675C66.224 59.8111 68.9277 49.7196 64.3715 41.828C59.8151 33.9362 49.7239 31.2321 41.832 35.7885ZM44.582 40.5516C49.8434 37.514 56.5707 39.3167 59.6084 44.578C62.6458 49.8391 60.8434 56.5667 55.5821 59.6043C50.3207 62.642 43.5933 60.8391 40.5558 55.578C37.5182 50.3167 39.3206 43.5893 44.582 40.5516Z" fill="white"/>
</svg>
