<svg width="20" height="19" viewBox="0 0 20 19" fill="none" xmlns="http://www.w3.org/2000/svg">
<path d="M11.9247 0.503906C12.7225 0.503906 13.4607 0.926376 13.8647 1.61428L14.6793 3.00086H16.75C18.5449 3.00086 20 4.45593 20 6.25086V15.7509C20 17.5458 18.5449 19.0009 16.75 19.0009H3.25C1.45507 19.0009 0 17.5458 0 15.7509V6.25086C0 4.45593 1.45507 3.00086 3.25 3.00086H5.33042L6.205 1.57656C6.61425 0.910056 7.34026 0.503906 8.1224 0.503906H11.9247ZM10 6.00086C7.51472 6.00086 5.5 8.0156 5.5 10.5009C5.5 12.9861 7.51472 15.0009 10 15.0009C12.4853 15.0009 14.5 12.9861 14.5 10.5009C14.5 8.0156 12.4853 6.00086 10 6.00086ZM10 7.50086C11.6569 7.50086 13 8.844 13 10.5009C13 12.1577 11.6569 13.5009 10 13.5009C8.3431 13.5009 7 12.1577 7 10.5009C7 8.844 8.3431 7.50086 10 7.50086Z" fill="#999999"/>
</svg>
