<svg width="29" height="30" viewBox="0 0 29 30" fill="none" xmlns="http://www.w3.org/2000/svg">
<path d="M14.7821 0.833344C22.6061 0.833344 28.9488 7.17597 28.9488 15C28.9488 22.824 22.6061 29.1667 14.7821 29.1667C12.4582 29.1667 10.2136 28.6055 8.20283 27.5493L2.12477 29.1317C1.4812 29.2994 0.823587 28.9135 0.655967 28.2699C0.604131 28.071 0.604117 27.8621 0.655924 27.663L2.23742 21.5878C1.17818 19.575 0.615479 17.3273 0.615479 15C0.615479 7.17597 6.95811 0.833344 14.7821 0.833344ZM16.5554 16.4167H10.178L10.0338 16.4263C9.51519 16.4967 9.11548 16.9413 9.11548 17.4792C9.11548 18.0171 9.51519 18.4616 10.0338 18.532L10.178 18.5417H16.5554L16.6996 18.532C17.2182 18.4616 17.6179 18.0171 17.6179 17.4792C17.6179 16.9413 17.2182 16.4967 16.6996 16.4263L16.5554 16.4167ZM19.3863 11.4583H10.178L10.0338 11.468C9.51519 11.5384 9.11548 11.9829 9.11548 12.5208C9.11548 13.0588 9.51519 13.5033 10.0338 13.5737L10.178 13.5833H19.3863L19.5305 13.5737C20.049 13.5033 20.4488 13.0588 20.4488 12.5208C20.4488 11.9829 20.049 11.5384 19.5305 11.468L19.3863 11.4583Z" fill="url(#paint0_linear_29_576)"/>
<defs>
<linearGradient id="paint0_linear_29_576" x1="0.782227" y1="15" x2="28.7822" y2="15" gradientUnits="userSpaceOnUse">
<stop stop-color="#F65E7E"/>
<stop offset="1" stop-color="#4335E5"/>
</linearGradient>
</defs>
</svg>
