<svg width="35" height="34" viewBox="0 0 35 34" fill="none" xmlns="http://www.w3.org/2000/svg">
<path d="M17.7824 2.83334C25.6064 2.83334 31.9491 9.17597 31.9491 17C31.9491 24.824 25.6064 31.1667 17.7824 31.1667C15.4585 31.1667 13.2139 30.6055 11.2031 29.5493L5.12501 31.1317C4.48145 31.2994 3.82383 30.9135 3.65621 30.2699C3.60438 30.071 3.60436 29.8621 3.65617 29.663L5.23766 23.5878C4.17842 21.575 3.61572 19.3273 3.61572 17C3.61572 9.17597 9.95835 2.83334 17.7824 2.83334ZM19.5556 18.4167H13.1782L13.034 18.4263C12.5154 18.4967 12.1157 18.9413 12.1157 19.4792C12.1157 20.0171 12.5154 20.4616 13.034 20.532L13.1782 20.5417H19.5556L19.6998 20.532C20.2185 20.4616 20.6181 20.0171 20.6181 19.4792C20.6181 18.9413 20.2185 18.4967 19.6998 18.4263L19.5556 18.4167ZM22.3866 13.4583H13.1782L13.034 13.468C12.5154 13.5384 12.1157 13.9829 12.1157 14.5208C12.1157 15.0588 12.5154 15.5033 13.034 15.5737L13.1782 15.5833H22.3866L22.5308 15.5737C23.0493 15.5033 23.4491 15.0588 23.4491 14.5208C23.4491 13.9829 23.0493 13.5384 22.5308 13.468L22.3866 13.4583Z" fill="#30176A"/>
</svg>
