<svg width="22" height="22" viewBox="0 0 22 22" fill="none" xmlns="http://www.w3.org/2000/svg">
<path fill-rule="evenodd" clip-rule="evenodd" d="M5.69371 5.69356C6.04704 5.34023 6.6199 5.34023 6.97324 5.69356L10.8573 9.5776L14.7413 5.69356C15.0947 5.34023 15.6675 5.34023 16.0209 5.69356C16.3742 6.04689 16.3742 6.61975 16.0209 6.97308L12.1368 10.8571L16.0209 14.7412C16.3742 15.0945 16.3742 15.6674 16.0209 16.0207C15.6675 16.374 15.0947 16.374 14.7413 16.0207L10.8573 12.1367L6.97324 16.0207C6.6199 16.374 6.04704 16.374 5.69371 16.0207C5.34038 15.6674 5.34038 15.0945 5.69371 14.7412L9.57776 10.8571L5.69371 6.97308C5.34038 6.61975 5.34038 6.04689 5.69371 5.69356Z" fill="white" stroke="white" stroke-width="2" stroke-linecap="round" stroke-linejoin="round"/>
</svg>
