<svg width="11" height="11" viewBox="0 0 11 11" fill="none" xmlns="http://www.w3.org/2000/svg">
<path d="M2.09611 2.17742L2.13424 2.13424C2.29947 1.96902 2.55945 1.95631 2.73925 2.09611L2.78243 2.13424L5.66667 5.01813L8.55091 2.13424C8.72989 1.95525 9.02011 1.95525 9.19909 2.13424C9.37807 2.31323 9.37807 2.60343 9.19909 2.78243L6.31521 5.66667L9.19909 8.55091C9.36432 8.71614 9.37701 8.97611 9.23722 9.15591L9.19909 9.19909C9.03386 9.36432 8.77389 9.37701 8.59409 9.23722L8.55091 9.19909L5.66667 6.31521L2.78243 9.19909C2.60343 9.37807 2.31323 9.37807 2.13424 9.19909C1.95525 9.02011 1.95525 8.72989 2.13424 8.55091L5.01813 5.66667L2.13424 2.78243C1.96902 2.6172 1.95631 2.35722 2.09611 2.17742L2.13424 2.13424L2.09611 2.17742Z" fill="white"/>
</svg>
