<svg width="25" height="25" viewBox="0 0 25 25" fill="none" xmlns="http://www.w3.org/2000/svg">
<path fill-rule="evenodd" clip-rule="evenodd" d="M7.21754 7.2177C7.60721 6.82803 8.23899 6.82803 8.62866 7.2177L12.9121 11.5012L17.1956 7.2177C17.5853 6.82803 18.2171 6.82803 18.6067 7.2177C18.9964 7.60736 18.9964 8.23914 18.6067 8.62881L14.3232 12.9123L18.6067 17.1958C18.9964 17.5854 18.9964 18.2172 18.6067 18.6069C18.2171 18.9965 17.5853 18.9965 17.1956 18.6069L12.9121 14.3234L8.62866 18.6069C8.23899 18.9965 7.60721 18.9965 7.21754 18.6069C6.82788 18.2172 6.82788 17.5854 7.21754 17.1958L11.501 12.9123L7.21754 8.62881C6.82788 8.23914 6.82788 7.60736 7.21754 7.2177Z" fill="#F27121" stroke="#F27121" stroke-width="2" stroke-linecap="round" stroke-linejoin="round"/>
</svg>
