<svg width="193" height="97" viewBox="0 0 193 97" fill="none" xmlns="http://www.w3.org/2000/svg">
<path d="M4.095 63V31.5H17.01C19.32 31.5 21.405 31.89 23.265 32.67C25.155 33.42 26.775 34.5 28.125 35.91C29.505 37.29 30.555 38.94 31.275 40.86C31.995 42.78 32.355 44.91 32.355 47.25C32.355 49.56 31.995 51.69 31.275 53.64C30.555 55.56 29.52 57.225 28.17 58.635C26.82 60.015 25.2 61.095 23.31 61.875C21.42 62.625 19.32 63 17.01 63H4.095ZM10.845 58.095L10.125 56.925H16.785C18.135 56.925 19.35 56.7 20.43 56.25C21.51 55.77 22.425 55.125 23.175 54.315C23.955 53.475 24.54 52.455 24.93 51.255C25.32 50.055 25.515 48.72 25.515 47.25C25.515 45.78 25.32 44.46 24.93 43.29C24.54 42.09 23.955 41.07 23.175 40.23C22.425 39.39 21.51 38.745 20.43 38.295C19.35 37.815 18.135 37.575 16.785 37.575H9.99L10.845 36.495V58.095ZM46.4702 63.45C44.4902 63.45 42.7052 62.91 41.1152 61.83C39.5252 60.75 38.2652 59.28 37.3352 57.42C36.4052 55.56 35.9402 53.43 35.9402 51.03C35.9402 48.63 36.4052 46.515 37.3352 44.685C38.2952 42.825 39.5852 41.37 41.2052 40.32C42.8252 39.24 44.6702 38.7 46.7402 38.7C47.9102 38.7 48.9752 38.88 49.9352 39.24C50.9252 39.57 51.7802 40.035 52.5002 40.635C53.2502 41.235 53.8802 41.925 54.3902 42.705C54.9002 43.485 55.2602 44.325 55.4702 45.225L54.1202 45V39.195H60.4652V63H54.0302V57.285L55.4702 57.15C55.2302 57.99 54.8402 58.785 54.3002 59.535C53.7602 60.285 53.0852 60.96 52.2752 61.56C51.4952 62.13 50.6102 62.595 49.6202 62.955C48.6302 63.285 47.5802 63.45 46.4702 63.45ZM48.2252 57.915C49.4252 57.915 50.4752 57.63 51.3752 57.06C52.2752 56.49 52.9652 55.695 53.4452 54.675C53.9552 53.625 54.2102 52.41 54.2102 51.03C54.2102 49.68 53.9552 48.495 53.4452 47.475C52.9652 46.455 52.2752 45.66 51.3752 45.09C50.4752 44.49 49.4252 44.19 48.2252 44.19C47.0552 44.19 46.0202 44.49 45.1202 45.09C44.2502 45.66 43.5602 46.455 43.0502 47.475C42.5402 48.495 42.2852 49.68 42.2852 51.03C42.2852 52.41 42.5402 53.625 43.0502 54.675C43.5602 55.695 44.2502 56.49 45.1202 57.06C46.0202 57.63 47.0552 57.915 48.2252 57.915ZM69.1668 63V33.165H75.5568V63H69.1668ZM64.7118 44.91V39.195H80.4168V44.91H64.7118ZM85.1217 63V39.195H91.5117V63H85.1217ZM88.2717 34.29C87.0417 34.29 86.0817 33.99 85.3917 33.39C84.7017 32.79 84.3567 31.935 84.3567 30.825C84.3567 29.805 84.7017 28.98 85.3917 28.35C86.1117 27.69 87.0717 27.36 88.2717 27.36C89.5017 27.36 90.4617 27.675 91.1517 28.305C91.8417 28.905 92.1867 29.745 92.1867 30.825C92.1867 31.875 91.8267 32.715 91.1067 33.345C90.4167 33.975 89.4717 34.29 88.2717 34.29ZM98.3366 63V39.195H104.457L104.637 44.055L103.377 44.595C103.707 43.515 104.292 42.54 105.132 41.67C106.002 40.77 107.037 40.05 108.237 39.51C109.437 38.97 110.697 38.7 112.017 38.7C113.817 38.7 115.317 39.06 116.517 39.78C117.747 40.5 118.662 41.595 119.262 43.065C119.892 44.505 120.207 46.29 120.207 48.42V63H113.817V48.915C113.817 47.835 113.667 46.935 113.367 46.215C113.067 45.495 112.602 44.97 111.972 44.64C111.372 44.28 110.622 44.13 109.722 44.19C109.002 44.19 108.327 44.31 107.697 44.55C107.097 44.76 106.572 45.075 106.122 45.495C105.702 45.915 105.357 46.395 105.087 46.935C104.847 47.475 104.727 48.06 104.727 48.69V63H101.577C100.887 63 100.272 63 99.7316 63C99.1916 63 98.7266 63 98.3366 63ZM137.175 73.35C135.285 73.35 133.425 73.065 131.595 72.495C129.765 71.955 128.28 71.25 127.14 70.38L129.39 65.79C129.99 66.21 130.68 66.585 131.46 66.915C132.24 67.245 133.05 67.5 133.89 67.68C134.76 67.86 135.645 67.95 136.545 67.95C138.105 67.95 139.38 67.71 140.37 67.23C141.39 66.75 142.155 66.03 142.665 65.07C143.175 64.14 143.43 62.94 143.43 61.47V57.33L144.51 57.555C144.33 58.545 143.835 59.46 143.025 60.3C142.215 61.11 141.195 61.77 139.965 62.28C138.735 62.76 137.475 63 136.185 63C133.965 63 132 62.49 130.29 61.47C128.58 60.45 127.23 59.04 126.24 57.24C125.25 55.44 124.755 53.37 124.755 51.03C124.755 48.63 125.235 46.515 126.195 44.685C127.185 42.825 128.52 41.37 130.2 40.32C131.91 39.24 133.845 38.7 136.005 38.7C136.905 38.7 137.76 38.805 138.57 39.015C139.41 39.225 140.175 39.525 140.865 39.915C141.585 40.275 142.215 40.695 142.755 41.175C143.325 41.625 143.79 42.12 144.15 42.66C144.51 43.2 144.735 43.74 144.825 44.28L143.52 44.64L143.7 39.195H149.82V61.2C149.82 63.15 149.535 64.875 148.965 66.375C148.395 67.875 147.555 69.135 146.445 70.155C145.365 71.205 144.03 72 142.44 72.54C140.88 73.08 139.125 73.35 137.175 73.35ZM137.355 57.87C138.615 57.87 139.71 57.585 140.64 57.015C141.6 56.445 142.335 55.65 142.845 54.63C143.355 53.61 143.61 52.41 143.61 51.03C143.61 49.68 143.355 48.495 142.845 47.475C142.335 46.425 141.6 45.615 140.64 45.045C139.71 44.475 138.615 44.19 137.355 44.19C136.125 44.19 135.03 44.49 134.07 45.09C133.14 45.66 132.42 46.455 131.91 47.475C131.4 48.495 131.145 49.68 131.145 51.03C131.145 52.38 131.4 53.58 131.91 54.63C132.42 55.65 133.14 56.445 134.07 57.015C135.03 57.585 136.125 57.87 137.355 57.87ZM156.214 63V29.7H162.604V63H156.214ZM171.759 73.35L176.979 61.11L177.069 64.8L165.459 39.195H172.704L178.509 52.92C178.749 53.43 178.974 54.03 179.184 54.72C179.424 55.38 179.619 56.025 179.769 56.655L178.689 57.105C178.869 56.595 179.079 56.01 179.319 55.35C179.559 54.69 179.799 53.985 180.039 53.235L185.034 39.195H192.324L182.334 63L178.239 73.35H171.759Z" fill="#2C1166"/>
<path d="M21.128 92.18C20.228 92.18 19.394 92.018 18.626 91.694C17.858 91.37 17.186 90.92 16.61 90.344C16.046 89.756 15.608 89.066 15.296 88.274C14.984 87.482 14.828 86.618 14.828 85.682C14.828 84.746 14.984 83.882 15.296 83.09C15.608 82.298 16.046 81.614 16.61 81.038C17.186 80.45 17.858 79.994 18.626 79.67C19.394 79.346 20.228 79.184 21.128 79.184C22.04 79.184 22.88 79.346 23.648 79.67C24.416 79.994 25.082 80.45 25.646 81.038C26.21 81.626 26.648 82.316 26.96 83.108C27.272 83.888 27.428 84.746 27.428 85.682C27.428 86.606 27.272 87.464 26.96 88.256C26.648 89.048 26.21 89.738 25.646 90.326C25.082 90.914 24.416 91.37 23.648 91.694C22.88 92.018 22.04 92.18 21.128 92.18ZM21.128 89.948C21.704 89.948 22.226 89.846 22.694 89.642C23.174 89.426 23.588 89.126 23.936 88.742C24.284 88.346 24.554 87.89 24.746 87.374C24.95 86.858 25.052 86.294 25.052 85.682C25.052 85.07 24.95 84.506 24.746 83.99C24.554 83.474 24.284 83.024 23.936 82.64C23.588 82.244 23.174 81.944 22.694 81.74C22.226 81.524 21.704 81.416 21.128 81.416C20.564 81.416 20.042 81.524 19.562 81.74C19.082 81.944 18.668 82.238 18.32 82.622C17.972 83.006 17.702 83.456 17.51 83.972C17.318 84.488 17.222 85.058 17.222 85.682C17.222 86.294 17.318 86.864 17.51 87.392C17.702 87.908 17.972 88.358 18.32 88.742C18.668 89.126 19.082 89.426 19.562 89.642C20.042 89.846 20.564 89.948 21.128 89.948ZM29.5694 92V82.514H31.7294L31.7654 84.458L31.3514 84.674C31.4714 84.242 31.7054 83.852 32.0534 83.504C32.4014 83.144 32.8154 82.856 33.2954 82.64C33.7754 82.424 34.2674 82.316 34.7714 82.316C35.4914 82.316 36.0914 82.46 36.5714 82.748C37.0634 83.036 37.4294 83.468 37.6694 84.044C37.9214 84.62 38.0474 85.34 38.0474 86.204V92H35.8334V86.366C35.8334 85.886 35.7674 85.49 35.6354 85.178C35.5034 84.854 35.2994 84.62 35.0234 84.476C34.7474 84.32 34.4114 84.248 34.0154 84.26C33.6914 84.26 33.3914 84.314 33.1154 84.422C32.8514 84.518 32.6174 84.662 32.4134 84.854C32.2214 85.034 32.0654 85.244 31.9454 85.484C31.8374 85.724 31.7834 85.988 31.7834 86.276V92H30.6854C30.4694 92 30.2654 92 30.0734 92C29.8934 92 29.7254 92 29.5694 92ZM40.5562 92V78.68H42.7882V92H40.5562ZM45.6418 92V82.514H47.8558V92H45.6418ZM46.7218 80.498C46.2778 80.498 45.9298 80.39 45.6778 80.174C45.4378 79.946 45.3178 79.628 45.3178 79.22C45.3178 78.836 45.4438 78.524 45.6958 78.284C45.9478 78.044 46.2898 77.924 46.7218 77.924C47.1778 77.924 47.5258 78.038 47.7658 78.266C48.0178 78.482 48.1438 78.8 48.1438 79.22C48.1438 79.592 48.0178 79.898 47.7658 80.138C47.5138 80.378 47.1658 80.498 46.7218 80.498ZM50.6632 92V82.514H52.8232L52.8592 84.458L52.4452 84.674C52.5652 84.242 52.7992 83.852 53.1472 83.504C53.4952 83.144 53.9092 82.856 54.3892 82.64C54.8692 82.424 55.3612 82.316 55.8652 82.316C56.5852 82.316 57.1852 82.46 57.6652 82.748C58.1572 83.036 58.5232 83.468 58.7632 84.044C59.0152 84.62 59.1412 85.34 59.1412 86.204V92H56.9272V86.366C56.9272 85.886 56.8612 85.49 56.7292 85.178C56.5972 84.854 56.3932 84.62 56.1172 84.476C55.8412 84.32 55.5052 84.248 55.1092 84.26C54.7852 84.26 54.4852 84.314 54.2092 84.422C53.9452 84.518 53.7112 84.662 53.5072 84.854C53.3152 85.034 53.1592 85.244 53.0392 85.484C52.9312 85.724 52.8772 85.988 52.8772 86.276V92H51.7792C51.5632 92 51.3592 92 51.1672 92C50.9872 92 50.8192 92 50.6632 92ZM66.0779 92.18C65.0819 92.18 64.1999 91.97 63.4319 91.55C62.6759 91.13 62.0819 90.56 61.6499 89.84C61.2299 89.108 61.0199 88.274 61.0199 87.338C61.0199 86.594 61.1399 85.916 61.3799 85.304C61.6199 84.692 61.9499 84.164 62.3699 83.72C62.8019 83.264 63.3119 82.916 63.8999 82.676C64.4999 82.424 65.1539 82.298 65.8619 82.298C66.4859 82.298 67.0679 82.418 67.6079 82.658C68.1479 82.898 68.6159 83.228 69.0119 83.648C69.4079 84.056 69.7079 84.548 69.9119 85.124C70.1279 85.688 70.2299 86.306 70.2179 86.978L70.1999 87.752H62.5139L62.0999 86.24H68.3459L68.0579 86.546V86.15C68.0219 85.778 67.9019 85.454 67.6979 85.178C67.4939 84.89 67.2299 84.668 66.9059 84.512C66.5939 84.344 66.2459 84.26 65.8619 84.26C65.2739 84.26 64.7759 84.374 64.3679 84.602C63.9719 84.83 63.6719 85.16 63.4679 85.592C63.2639 86.012 63.1619 86.54 63.1619 87.176C63.1619 87.788 63.2879 88.322 63.5399 88.778C63.8039 89.234 64.1699 89.588 64.6379 89.84C65.1179 90.08 65.6759 90.2 66.3119 90.2C66.7559 90.2 67.1639 90.128 67.5359 89.984C67.9079 89.84 68.3099 89.582 68.7419 89.21L69.8399 90.74C69.5159 91.04 69.1439 91.298 68.7239 91.514C68.3159 91.718 67.8839 91.88 67.4279 92C66.9719 92.12 66.5219 92.18 66.0779 92.18ZM77.8658 92V79.4H82.9238C83.8358 79.4 84.6578 79.55 85.3898 79.85C86.1338 80.15 86.7698 80.582 87.2978 81.146C87.8378 81.71 88.2458 82.376 88.5218 83.144C88.8098 83.912 88.9538 84.764 88.9538 85.7C88.9538 86.636 88.8098 87.494 88.5218 88.274C88.2458 89.042 87.8438 89.708 87.3158 90.272C86.7878 90.824 86.1518 91.25 85.4078 91.55C84.6638 91.85 83.8358 92 82.9238 92H77.8658ZM80.2058 90.182L80.0258 89.84H82.8338C83.4218 89.84 83.9438 89.744 84.3998 89.552C84.8678 89.36 85.2638 89.084 85.5878 88.724C85.9118 88.364 86.1578 87.932 86.3258 87.428C86.4938 86.912 86.5778 86.336 86.5778 85.7C86.5778 85.064 86.4938 84.494 86.3258 83.99C86.1578 83.474 85.9058 83.036 85.5698 82.676C85.2458 82.316 84.8558 82.04 84.3998 81.848C83.9438 81.656 83.4218 81.56 82.8338 81.56H79.9718L80.2058 81.254V90.182ZM94.6749 92.18C93.8949 92.18 93.1869 91.964 92.5509 91.532C91.9149 91.1 91.4049 90.512 91.0209 89.768C90.6369 89.024 90.4449 88.178 90.4449 87.23C90.4449 86.282 90.6369 85.436 91.0209 84.692C91.4049 83.948 91.9269 83.366 92.5869 82.946C93.2469 82.526 93.9909 82.316 94.8189 82.316C95.2989 82.316 95.7369 82.388 96.1329 82.532C96.5289 82.664 96.8769 82.856 97.1769 83.108C97.4769 83.36 97.7229 83.648 97.9149 83.972C98.1189 84.296 98.2569 84.644 98.3289 85.016L97.8429 84.89V82.514H100.075V92H97.8249V89.732L98.3469 89.642C98.2629 89.966 98.1069 90.284 97.8789 90.596C97.6629 90.896 97.3869 91.166 97.0509 91.406C96.7269 91.634 96.3609 91.82 95.9529 91.964C95.5569 92.108 95.1309 92.18 94.6749 92.18ZM95.2869 90.218C95.8029 90.218 96.2589 90.092 96.6549 89.84C97.0509 89.588 97.3569 89.24 97.5729 88.796C97.8009 88.34 97.9149 87.818 97.9149 87.23C97.9149 86.654 97.8009 86.144 97.5729 85.7C97.3569 85.256 97.0509 84.908 96.6549 84.656C96.2589 84.404 95.8029 84.278 95.2869 84.278C94.7709 84.278 94.3149 84.404 93.9189 84.656C93.5349 84.908 93.2349 85.256 93.0189 85.7C92.8029 86.144 92.6949 86.654 92.6949 87.23C92.6949 87.818 92.8029 88.34 93.0189 88.796C93.2349 89.24 93.5349 89.588 93.9189 89.84C94.3149 90.092 94.7709 90.218 95.2869 90.218ZM103.668 92V80.102H105.882V92H103.668ZM101.796 84.566V82.514H107.952V84.566H101.796ZM109.89 92V82.514H112.104V92H109.89ZM110.97 80.498C110.526 80.498 110.178 80.39 109.926 80.174C109.686 79.946 109.566 79.628 109.566 79.22C109.566 78.836 109.692 78.524 109.944 78.284C110.196 78.044 110.538 77.924 110.97 77.924C111.426 77.924 111.774 78.038 112.014 78.266C112.266 78.482 112.392 78.8 112.392 79.22C112.392 79.592 112.266 79.898 112.014 80.138C111.762 80.378 111.414 80.498 110.97 80.498ZM114.911 92V82.514H117.071L117.107 84.458L116.693 84.674C116.813 84.242 117.047 83.852 117.395 83.504C117.743 83.144 118.157 82.856 118.637 82.64C119.117 82.424 119.609 82.316 120.113 82.316C120.833 82.316 121.433 82.46 121.913 82.748C122.405 83.036 122.771 83.468 123.011 84.044C123.263 84.62 123.389 85.34 123.389 86.204V92H121.175V86.366C121.175 85.886 121.109 85.49 120.977 85.178C120.845 84.854 120.641 84.62 120.365 84.476C120.089 84.32 119.753 84.248 119.357 84.26C119.033 84.26 118.733 84.314 118.457 84.422C118.193 84.518 117.959 84.662 117.755 84.854C117.563 85.034 117.407 85.244 117.287 85.484C117.179 85.724 117.125 85.988 117.125 86.276V92H116.027C115.811 92 115.607 92 115.415 92C115.235 92 115.067 92 114.911 92ZM130.146 96.14C129.438 96.14 128.73 96.032 128.022 95.816C127.326 95.6 126.762 95.318 126.33 94.97L127.122 93.332C127.374 93.512 127.656 93.668 127.968 93.8C128.28 93.932 128.61 94.034 128.958 94.106C129.318 94.178 129.672 94.214 130.02 94.214C130.656 94.214 131.184 94.112 131.604 93.908C132.036 93.716 132.36 93.416 132.576 93.008C132.792 92.612 132.9 92.114 132.9 91.514V89.768L133.224 89.894C133.152 90.266 132.954 90.62 132.63 90.956C132.306 91.292 131.898 91.568 131.406 91.784C130.914 91.988 130.41 92.09 129.894 92.09C128.994 92.09 128.196 91.88 127.5 91.46C126.816 91.04 126.27 90.47 125.862 89.75C125.466 89.018 125.268 88.178 125.268 87.23C125.268 86.282 125.466 85.442 125.862 84.71C126.258 83.966 126.798 83.384 127.482 82.964C128.178 82.532 128.958 82.316 129.822 82.316C130.182 82.316 130.53 82.358 130.866 82.442C131.202 82.526 131.508 82.646 131.784 82.802C132.072 82.958 132.33 83.132 132.558 83.324C132.786 83.516 132.972 83.72 133.116 83.936C133.26 84.152 133.35 84.362 133.386 84.566L132.918 84.71L132.954 82.514H135.132V91.352C135.132 92.12 135.018 92.798 134.79 93.386C134.562 93.974 134.232 94.472 133.8 94.88C133.368 95.3 132.846 95.612 132.234 95.816C131.622 96.032 130.926 96.14 130.146 96.14ZM130.236 90.2C130.776 90.2 131.25 90.074 131.658 89.822C132.078 89.57 132.402 89.222 132.63 88.778C132.858 88.334 132.972 87.824 132.972 87.248C132.972 86.66 132.852 86.144 132.612 85.7C132.384 85.244 132.066 84.89 131.658 84.638C131.25 84.386 130.776 84.26 130.236 84.26C129.696 84.26 129.222 84.392 128.814 84.656C128.406 84.908 128.082 85.262 127.842 85.718C127.614 86.162 127.5 86.672 127.5 87.248C127.5 87.812 127.614 88.322 127.842 88.778C128.082 89.222 128.406 89.57 128.814 89.822C129.222 90.074 129.696 90.2 130.236 90.2ZM141.976 92L146.89 79.4H149.086L153.964 92H151.534L148.834 84.836C148.774 84.692 148.69 84.464 148.582 84.152C148.486 83.84 148.378 83.504 148.258 83.144C148.138 82.772 148.03 82.43 147.934 82.118C147.838 81.794 147.766 81.56 147.718 81.416L148.168 81.398C148.096 81.638 148.012 81.908 147.916 82.208C147.82 82.508 147.718 82.82 147.61 83.144C147.502 83.468 147.394 83.78 147.286 84.08C147.19 84.38 147.1 84.65 147.016 84.89L144.316 92H141.976ZM144.208 89.12L145.018 87.086H150.76L151.624 89.12H144.208ZM155.552 95.96V82.514H157.73L157.766 84.674L157.388 84.512C157.46 84.14 157.664 83.792 158 83.468C158.336 83.132 158.744 82.862 159.224 82.658C159.716 82.454 160.226 82.352 160.754 82.352C161.594 82.352 162.338 82.562 162.986 82.982C163.646 83.402 164.162 83.978 164.534 84.71C164.918 85.442 165.11 86.288 165.11 87.248C165.11 88.196 164.918 89.042 164.534 89.786C164.162 90.518 163.646 91.1 162.986 91.532C162.338 91.952 161.606 92.162 160.79 92.162C160.238 92.162 159.704 92.054 159.188 91.838C158.684 91.622 158.252 91.34 157.892 90.992C157.544 90.644 157.328 90.278 157.244 89.894L157.784 89.642V95.96H155.552ZM160.34 90.2C160.844 90.2 161.294 90.074 161.69 89.822C162.086 89.57 162.392 89.222 162.608 88.778C162.836 88.334 162.95 87.824 162.95 87.248C162.95 86.672 162.842 86.168 162.626 85.736C162.41 85.292 162.104 84.944 161.708 84.692C161.312 84.44 160.856 84.314 160.34 84.314C159.812 84.314 159.35 84.44 158.954 84.692C158.57 84.932 158.264 85.274 158.036 85.718C157.808 86.162 157.694 86.672 157.694 87.248C157.694 87.824 157.808 88.334 158.036 88.778C158.264 89.222 158.57 89.57 158.954 89.822C159.35 90.074 159.812 90.2 160.34 90.2ZM167.083 95.96V82.514H169.261L169.297 84.674L168.919 84.512C168.991 84.14 169.195 83.792 169.531 83.468C169.867 83.132 170.275 82.862 170.755 82.658C171.247 82.454 171.757 82.352 172.285 82.352C173.125 82.352 173.869 82.562 174.517 82.982C175.177 83.402 175.693 83.978 176.065 84.71C176.449 85.442 176.641 86.288 176.641 87.248C176.641 88.196 176.449 89.042 176.065 89.786C175.693 90.518 175.177 91.1 174.517 91.532C173.869 91.952 173.137 92.162 172.321 92.162C171.769 92.162 171.235 92.054 170.719 91.838C170.215 91.622 169.783 91.34 169.423 90.992C169.075 90.644 168.859 90.278 168.775 89.894L169.315 89.642V95.96H167.083ZM171.871 90.2C172.375 90.2 172.825 90.074 173.221 89.822C173.617 89.57 173.923 89.222 174.139 88.778C174.367 88.334 174.481 87.824 174.481 87.248C174.481 86.672 174.373 86.168 174.157 85.736C173.941 85.292 173.635 84.944 173.239 84.692C172.843 84.44 172.387 84.314 171.871 84.314C171.343 84.314 170.881 84.44 170.485 84.692C170.101 84.932 169.795 85.274 169.567 85.718C169.339 86.162 169.225 86.672 169.225 87.248C169.225 87.824 169.339 88.334 169.567 88.778C169.795 89.222 170.101 89.57 170.485 89.822C170.881 90.074 171.343 90.2 171.871 90.2Z" fill="#F85183"/>
<g filter="url(#filter0_d_57_612)">
<path d="M57.8592 13.9004L57.2793 14.9073L56.271 14.3252C53.7002 12.8409 50.4129 13.7218 48.9287 16.2926C47.4444 18.8634 48.3252 22.1507 50.8961 23.635L60.5658 29.2178C60.9246 29.4249 61.3833 29.302 61.5904 28.9433L67.1787 19.2705C68.6567 16.6942 67.7818 13.4152 65.2106 11.9306C62.635 10.4437 59.3462 11.3249 57.8592 13.9004Z" fill="#F53F77"/>
</g>
<defs>
<filter id="filter0_d_57_612" x="36.2076" y="0.208008" width="45.6892" height="44.1104" filterUnits="userSpaceOnUse" color-interpolation-filters="sRGB">
<feFlood flood-opacity="0" result="BackgroundImageFix"/>
<feColorMatrix in="SourceAlpha" type="matrix" values="0 0 0 0 0 0 0 0 0 0 0 0 0 0 0 0 0 0 127 0" result="hardAlpha"/>
<feOffset dx="1" dy="2"/>
<feGaussianBlur stdDeviation="6.5"/>
<feComposite in2="hardAlpha" operator="out"/>
<feColorMatrix type="matrix" values="0 0 0 0 0.958333 0 0 0 0 0.415278 0 0 0 0 0.582372 0 0 0 1 0"/>
<feBlend mode="normal" in2="BackgroundImageFix" result="effect1_dropShadow_57_612"/>
<feBlend mode="normal" in="SourceGraphic" in2="effect1_dropShadow_57_612" result="shape"/>
</filter>
</defs>
</svg>
