<svg width="180" height="180" viewBox="0 0 180 180" fill="none" xmlns="http://www.w3.org/2000/svg">
<g filter="url(#filter0_d_79_634)">
<circle cx="89.5132" cy="69.5132" r="39.5132" fill="white"/>
</g>
<path fill-rule="evenodd" clip-rule="evenodd" d="M84.2175 64.2177C84.6072 63.828 85.239 63.828 85.6287 64.2177L89.9121 68.5012L94.1956 64.2177C94.5853 63.828 95.2171 63.828 95.6067 64.2177C95.9964 64.6074 95.9964 65.2391 95.6067 65.6288L91.3232 69.9123L95.6067 74.1958C95.9964 74.5854 95.9964 75.2172 95.6067 75.6069C95.2171 75.9965 94.5853 75.9965 94.1956 75.6069L89.9121 71.3234L85.6287 75.6069C85.239 75.9965 84.6072 75.9965 84.2175 75.6069C83.8279 75.2172 83.8279 74.5854 84.2175 74.1958L88.501 69.9123L84.2175 65.6288C83.8279 65.2391 83.8279 64.6074 84.2175 64.2177Z" fill="#F27121" stroke="#F27121" stroke-width="2" stroke-linecap="round" stroke-linejoin="round"/>
<defs>
<filter id="filter0_d_79_634" x="0" y="0" width="179.026" height="179.026" filterUnits="userSpaceOnUse" color-interpolation-filters="sRGB">
<feFlood flood-opacity="0" result="BackgroundImageFix"/>
<feColorMatrix in="SourceAlpha" type="matrix" values="0 0 0 0 0 0 0 0 0 0 0 0 0 0 0 0 0 0 127 0" result="hardAlpha"/>
<feOffset dy="20"/>
<feGaussianBlur stdDeviation="25"/>
<feColorMatrix type="matrix" values="0 0 0 0 0 0 0 0 0 0 0 0 0 0 0 0 0 0 0.07 0"/>
<feBlend mode="normal" in2="BackgroundImageFix" result="effect1_dropShadow_79_634"/>
<feBlend mode="normal" in="SourceGraphic" in2="effect1_dropShadow_79_634" result="shape"/>
</filter>
</defs>
</svg>
