<svg width="20" height="20" viewBox="0 0 20 20" fill="none" xmlns="http://www.w3.org/2000/svg">
<path d="M10 -0.00799561C10.5128 -0.00799561 10.9355 0.378044 10.9933 0.875384L11 0.992004L11.0003 2.30597C14.4809 2.7545 17.2381 5.51199 17.6862 8.9927L19 8.992C19.5523 8.992 20 9.4397 20 9.992C20 10.5048 19.614 10.9275 19.1166 10.9853L19 10.992L17.686 10.9923C17.2375 14.4725 14.4805 17.2295 11.0003 17.678L11 18.992C11 19.5443 10.5523 19.992 10 19.992C9.4872 19.992 9.0645 19.606 9.0067 19.1086L9 18.992L9.0007 17.6782C5.51999 17.2301 2.7625 14.4729 2.31397 10.9923L1 10.992C0.44772 10.992 0 10.5443 0 9.992C0 9.4792 0.38604 9.0565 0.88338 8.9987L1 8.992L2.31384 8.9927C2.76197 5.51165 5.51965 2.75397 9.0007 2.30584L9 0.992004C9 0.439724 9.4477 -0.00799561 10 -0.00799561ZM10 4.242C6.82436 4.242 4.25 6.81636 4.25 9.992C4.25 13.1676 6.82436 15.742 10 15.742C13.1756 15.742 15.75 13.1676 15.75 9.992C15.75 6.81636 13.1756 4.242 10 4.242ZM10 5.992C12.2091 5.992 14 7.78286 14 9.992C14 12.2011 12.2091 13.992 10 13.992C7.79086 13.992 6 12.2011 6 9.992C6 7.78286 7.79086 5.992 10 5.992Z" fill="#F65E7E"/>
</svg>
