<svg width="27" height="28" viewBox="0 0 27 28" fill="none" xmlns="http://www.w3.org/2000/svg">
<g clip-path="url(#clip0_57_631)">
<path d="M26.7756 13.5887C26.5389 13.2649 20.899 5.66024 13.6959 5.66024C6.49272 5.66024 0.85258 13.2649 0.616134 13.5884C0.391953 13.8955 0.391953 14.3122 0.616134 14.6194C0.85258 14.9432 6.49272 22.5478 13.6959 22.5478C20.899 22.5478 26.5389 14.9431 26.7756 14.6196C27.0001 14.3125 27.0001 13.8955 26.7756 13.5887ZM13.6959 20.8008C8.38998 20.8008 3.79452 15.7535 2.43417 14.1034C3.79276 12.4519 8.3786 7.40722 13.6959 7.40722C19.0015 7.40722 23.5966 12.4537 24.9576 14.1046C23.599 15.7561 19.0131 20.8008 13.6959 20.8008Z" fill="black"/>
<path d="M13.6958 8.86305C10.806 8.86305 8.45483 11.2142 8.45483 14.104C8.45483 16.9939 10.806 19.345 13.6958 19.345C16.5856 19.345 18.9368 16.9939 18.9368 14.104C18.9368 11.2142 16.5856 8.86305 13.6958 8.86305ZM13.6958 17.598C11.7692 17.598 10.2019 16.0306 10.2019 14.104C10.2019 12.1774 11.7692 10.6101 13.6958 10.6101C15.6224 10.6101 17.1898 12.1774 17.1898 14.104C17.1898 16.0306 15.6225 17.598 13.6958 17.598Z" fill="black"/>
</g>
<defs>
<clipPath id="clip0_57_631">
<rect width="26.496" height="26.496" fill="white" transform="translate(0.447998 0.856018)"/>
</clipPath>
</defs>
</svg>
