<svg width="86" height="86" viewBox="0 0 86 86" fill="none" xmlns="http://www.w3.org/2000/svg">
<path d="M21.3156 26.5579C18.0905 28.6058 15.9492 32.2149 15.9492 36.3241V59.4739C15.9492 69.8004 24.3205 78.1717 34.6471 78.1717H57.7968C61.9061 78.1717 65.5153 76.0306 67.5692 72.8028L67.134 72.8231L66.7006 72.8295H34.6471C27.271 72.8295 21.2915 66.8501 21.2915 59.4739V27.4204C21.2915 27.1309 21.2996 26.8434 21.3156 26.5579ZM50.0352 48.43L49.703 48.7082L30.4903 67.6311C32.2263 68.6704 34.2573 69.268 36.4278 69.268H66.7006C68.9126 69.268 70.9797 68.6476 72.7373 67.5713L53.4447 48.7018L53.1462 48.4496C52.3377 47.8609 51.2743 47.7829 50.3978 48.2138L50.0352 48.43ZM36.4278 15.8455C30.0352 15.8455 24.853 21.0278 24.853 27.4204V57.6931C24.853 59.9782 25.515 62.1083 26.6578 63.9026L45.9545 44.9017L46.4114 44.4846C49.3728 41.983 53.7193 41.9684 56.6967 44.4461L57.18 44.8824L76.5296 63.8093C77.6361 62.0346 78.2754 59.9387 78.2754 57.6931V27.4204C78.2754 21.0278 73.0931 15.8455 66.7006 15.8455H36.4278ZM39.0973 25.6438C41.5546 25.6438 43.5465 27.6358 43.5465 30.0931C43.5465 32.5504 41.5546 34.5425 39.0973 34.5425C36.6401 34.5425 34.648 32.5504 34.648 30.0931C34.648 27.6358 36.6401 25.6438 39.0973 25.6438Z" fill="white" fill-opacity="0.5"/>
<path d="M16.3156 21.5579C13.0905 23.6058 10.9492 27.2149 10.9492 31.3241V54.4739C10.9492 64.8004 19.3205 73.1717 29.6471 73.1717H52.7968C56.9061 73.1717 60.5153 71.0306 62.5692 67.8028L62.134 67.8231L61.7006 67.8295H29.6471C22.271 67.8295 16.2915 61.8501 16.2915 54.4739V22.4204C16.2915 22.1309 16.2996 21.8434 16.3156 21.5579ZM45.0352 43.43L44.703 43.7082L25.4903 62.6311C27.2263 63.6704 29.2573 64.268 31.4278 64.268H61.7006C63.9126 64.268 65.9797 63.6476 67.7373 62.5713L48.4447 43.7018L48.1462 43.4496C47.3377 42.8609 46.2743 42.7829 45.3978 43.2138L45.0352 43.43ZM31.4278 10.8455C25.0352 10.8455 19.853 16.0278 19.853 22.4204V52.6931C19.853 54.9782 20.515 57.1083 21.6578 58.9026L40.9545 39.9017L41.4114 39.4846C44.3728 36.983 48.7193 36.9684 51.6967 39.4461L52.18 39.8824L71.5296 58.8093C72.6361 57.0346 73.2754 54.9387 73.2754 52.6931V22.4204C73.2754 16.0278 68.0931 10.8455 61.7006 10.8455H31.4278ZM34.0973 20.6438C36.5546 20.6438 38.5465 22.6358 38.5465 25.0931C38.5465 27.5504 36.5546 29.5425 34.0973 29.5425C31.6401 29.5425 29.648 27.5504 29.648 25.0931C29.648 22.6358 31.6401 20.6438 34.0973 20.6438Z" fill="white"/>
</svg>
