<svg width="64" height="64" viewBox="0 0 64 64" fill="none" xmlns="http://www.w3.org/2000/svg">
<path d="M6.31561 11.5579C3.09053 13.6058 0.949219 17.2149 0.949219 21.3241V44.4739C0.949219 54.8004 9.32052 63.1717 19.6471 63.1717H42.7968C46.9061 63.1717 50.5153 61.0306 52.5692 57.8028L52.134 57.8231L51.7006 57.8295H19.6471C12.271 57.8295 6.29146 51.8501 6.29146 44.4739V12.4204C6.29146 12.1309 6.29959 11.8434 6.31561 11.5579ZM35.0352 33.43L34.703 33.7082L15.4903 52.6311C17.2263 53.6704 19.2573 54.268 21.4278 54.268H51.7006C53.9126 54.268 55.9797 53.6476 57.7373 52.5713L38.4447 33.7018L38.1462 33.4496C37.3377 32.8609 36.2743 32.7829 35.3978 33.2138L35.0352 33.43ZM21.4278 0.845535C15.0352 0.845535 9.85296 6.02776 9.85296 12.4204V42.6931C9.85296 44.9782 10.515 47.1083 11.6578 48.9026L30.9545 29.9017L31.4114 29.4846C34.3728 26.983 38.7193 26.9684 41.6967 29.4461L42.18 29.8824L61.5296 48.8093C62.6361 47.0346 63.2754 44.9387 63.2754 42.6931V12.4204C63.2754 6.02776 58.0931 0.845535 51.7006 0.845535H21.4278ZM24.0973 10.6438C26.5546 10.6438 28.5465 12.6358 28.5465 15.0931C28.5465 17.5504 26.5546 19.5425 24.0973 19.5425C21.6401 19.5425 19.648 17.5504 19.648 15.0931C19.648 12.6358 21.6401 10.6438 24.0973 10.6438Z" fill="white"/>
</svg>
