<svg xmlns="http://www.w3.org/2000/svg" viewBox="0 0 26 30" fill="none" x="0px" y="0px"><path d="M24.444 10.2389C23.6977 9.18797 22.8641 8.20181 21.952 7.29092L17.931 11.3119C17.9698 11.5394 17.9929 11.7693 18 11.9999C18 13.326 17.4733 14.5978 16.5356 15.5355C15.5979 16.4731 14.3261 16.9999 13 16.9999C12.7694 16.9927 12.5395 16.9697 12.312 16.9309L9.05505 20.1879C10.3037 20.7159 11.6444 20.9919 13 20.9999C18.708 20.9999 22.905 15.9379 24.445 13.7599C24.8078 13.2445 25.0023 12.6295 25.0021 11.9993C25.002 11.369 24.807 10.7542 24.444 10.2389Z" fill="black"/><path d="M13 2.99992C7.29205 2.99992 3.10005 8.06192 1.55505 10.2399C1.19242 10.7552 0.997803 11.3699 0.997803 11.9999C0.997803 12.63 1.19242 13.2447 1.55505 13.7599C2.87462 15.6409 4.49021 17.2957 6.33905 18.6599L9.46305 15.5359C8.9987 15.0716 8.63034 14.5204 8.37901 13.9138C8.12767 13.3071 7.99829 12.6569 7.99824 12.0003C7.99815 10.6741 8.52488 9.40222 9.46255 8.46442C10.4002 7.52661 11.672 6.99971 12.9982 6.99961C14.3244 6.99952 15.5962 7.52625 16.534 8.46392L9.46305 15.5359L19.664 5.33592C17.7432 3.87667 15.4116 3.05935 13 2.99992Z" fill="black"/><path d="M2.00005 23.9999C1.8023 23.9999 1.609 23.9412 1.44459 23.8313C1.28018 23.7214 1.15204 23.5653 1.07637 23.3826C1.0007 23.1999 0.980899 22.9988 1.01947 22.8049C1.05803 22.6109 1.15324 22.4328 1.29305 22.2929L23.293 0.292919C23.4817 0.110761 23.7343 0.00996641 23.9965 0.0122448C24.2586 0.0145233 24.5095 0.119692 24.6949 0.3051C24.8803 0.490508 24.9854 0.741321 24.9877 1.00352C24.99 1.26571 24.8892 1.51832 24.7071 1.70692L2.70705 23.7069C2.51956 23.8945 2.26524 23.9999 2.00005 23.9999Z" fill="black"/><text x="0" y="39" fill="#000000" font-size="5px" font-weight="bold" font-family="'Helvetica Neue', Helvetica, Arial-Unicode, Arial, Sans-serif">Created by Naz</text><text x="0" y="44" fill="#000000" font-size="5px" font-weight="bold" font-family="'Helvetica Neue', Helvetica, Arial-Unicode, Arial, Sans-serif">from the Noun Project</text></svg>