<svg width="20" height="20" viewBox="0 0 20 20" fill="none" xmlns="http://www.w3.org/2000/svg">
<path d="M10 0C10.5128 0 10.9355 0.38604 10.9933 0.88338L11 1L11.0003 2.31397C14.4809 2.7625 17.2381 5.51999 17.6862 9.0007L19 9C19.5523 9 20 9.4477 20 10C20 10.5128 19.614 10.9355 19.1166 10.9933L19 11L17.686 11.0003C17.2375 14.4805 14.4805 17.2375 11.0003 17.686L11 19C11 19.5523 10.5523 20 10 20C9.4872 20 9.0645 19.614 9.0067 19.1166L9 19L9.0007 17.6862C5.51999 17.2381 2.7625 14.4809 2.31397 11.0003L1 11C0.44772 11 0 10.5523 0 10C0 9.4872 0.38604 9.0645 0.88338 9.0067L1 9L2.31384 9.0007C2.76197 5.51965 5.51965 2.76197 9.0007 2.31384L9 1C9 0.44772 9.4477 0 10 0ZM10 4.25C6.82436 4.25 4.25 6.82436 4.25 10C4.25 13.1756 6.82436 15.75 10 15.75C13.1756 15.75 15.75 13.1756 15.75 10C15.75 6.82436 13.1756 4.25 10 4.25ZM10 6C12.2091 6 14 7.79086 14 10C14 12.2091 12.2091 14 10 14C7.79086 14 6 12.2091 6 10C6 7.79086 7.79086 6 10 6Z" fill="#30176A"/>
</svg>
