<svg width="14" height="14" viewBox="0 0 14 14" fill="none" xmlns="http://www.w3.org/2000/svg">
<path d="M6.99984 0.583336C9.73826 0.583336 11.9582 2.80325 11.9582 5.54167C11.9582 7.28325 11.1545 9.04438 9.8108 10.7628C9.33392 11.3727 8.81529 11.9414 8.28396 12.4594C8.24019 12.5021 8.19714 12.5436 8.15488 12.584L7.91108 12.8127L7.68852 13.0133L7.48975 13.1849L7.36835 13.2855C7.15532 13.4591 6.85002 13.4605 6.63543 13.2888L6.5085 13.1838L6.31063 13.0128L6.08848 12.8126L5.84479 12.584L5.71571 12.4594C5.18439 11.9414 4.66576 11.3727 4.18887 10.7628C2.84522 9.04438 2.0415 7.28325 2.0415 5.54167C2.0415 2.80325 4.26142 0.583336 6.99984 0.583336ZM6.99984 1.75C4.90575 1.75 3.20817 3.44758 3.20817 5.54167C3.20817 6.97442 3.9098 8.51185 5.10795 10.0442C5.55031 10.61 6.03421 11.1406 6.5301 11.624L6.76502 11.8487C6.84242 11.9213 6.91993 11.9941 6.99984 12.0639L7.23462 11.8488L7.46957 11.624C7.96546 11.1406 8.44936 10.61 8.89173 10.0442C10.0899 8.51185 10.7915 6.97442 10.7915 5.54167C10.7915 3.44758 9.09392 1.75 6.99984 1.75ZM6.99984 3.20834C8.2885 3.20834 9.33317 4.25301 9.33317 5.54167C9.33317 6.83033 8.2885 7.875 6.99984 7.875C5.71118 7.875 4.6665 6.83033 4.6665 5.54167C4.6665 4.25301 5.71118 3.20834 6.99984 3.20834ZM6.99984 4.375C6.35551 4.375 5.83317 4.89734 5.83317 5.54167C5.83317 6.186 6.35551 6.70834 6.99984 6.70834C7.64417 6.70834 8.1665 6.186 8.1665 5.54167C8.1665 4.89734 7.64417 4.375 6.99984 4.375Z" fill="#E94057"/>
</svg>
