<svg width="19" height="19" viewBox="0 0 19 19" fill="none" xmlns="http://www.w3.org/2000/svg">
<rect x="1" y="1" width="16.768" height="16.768" rx="2" stroke="#596E79" stroke-width="2"/>
<path d="M12.6831 5.93306L7.625 10.9911L5.81694 9.18308C5.81694 9.18307 5.81694 9.18307 5.81694 9.18307C5.57286 8.93899 5.17713 8.93899 4.93305 9.18308C4.68898 9.42716 4.68898 9.82284 4.93305 10.0669L4.93306 10.0669L7.18305 12.3169C7.18305 12.3169 7.18306 12.3169 7.18306 12.3169C7.42713 12.561 7.82286 12.561 8.06694 12.3169C8.06694 12.3169 8.06694 12.3169 8.06694 12.3169L13.5669 6.81694C13.811 6.57287 13.811 6.17713 13.5669 5.93305C13.3228 5.68898 12.9272 5.68898 12.6831 5.93305L12.6831 5.93306Z" fill="#596E79" stroke="#596E79" stroke-width="0.5"/>
</svg>
