<svg width="16" height="20" viewBox="0 0 16 20" fill="none" xmlns="http://www.w3.org/2000/svg">
<path d="M11.7498 10V4.58334C11.7498 2.51228 10.0709 0.833344 7.99984 0.833344C5.92875 0.833344 4.24984 2.51228 4.24984 4.58334V10C4.24984 12.0711 5.92875 13.75 7.99984 13.75C10.0709 13.75 11.7498 12.0711 11.7498 10Z" fill="#9B9B9B"/>
<path d="M1.74984 8.75001C2.21007 8.75001 2.58317 9.12311 2.58317 9.58334C2.58317 12.5749 5.00828 15 7.99984 15C10.9914 15 13.4165 12.5749 13.4165 9.58334C13.4165 9.12311 13.7896 8.75001 14.2498 8.75001C14.7101 8.75001 15.0832 9.12311 15.0832 9.58334C15.0832 13.2134 12.3525 16.2057 8.83317 16.6182V18.3333C8.83317 18.7936 8.46008 19.1667 7.99984 19.1667C7.5396 19.1667 7.1665 18.7936 7.1665 18.3333V16.6182C3.64719 16.2057 0.916504 13.2134 0.916504 9.58334C0.916504 9.12311 1.2896 8.75001 1.74984 8.75001Z" fill="#9B9B9B"/>
</svg>
