<svg width="38" height="37" viewBox="0 0 38 37" fill="none" xmlns="http://www.w3.org/2000/svg">
<path d="M28.1531 21.5836C30.0678 21.5836 31.62 23.1358 31.62 25.0507V26.4665C31.62 27.3505 31.3437 28.2123 30.8297 28.9315C28.4466 32.2664 24.555 33.9186 19.282 33.9186C14.008 33.9186 10.1184 32.2658 7.74092 28.929C7.22914 28.2108 6.9541 27.3508 6.9541 26.4688V25.0507C6.9541 23.1358 8.50633 21.5836 10.4211 21.5836H28.1531ZM19.282 3.09082C23.5392 3.09082 26.9903 6.54196 26.9903 10.7992C26.9903 15.0564 23.5392 18.5075 19.282 18.5075C15.0248 18.5075 11.5736 15.0564 11.5736 10.7992C11.5736 6.54196 15.0248 3.09082 19.282 3.09082Z" fill="#30176A"/>
</svg>
