<svg width="32" height="40" viewBox="0 0 32 40" fill="none" xmlns="http://www.w3.org/2000/svg">
<path d="M27.0287 23.8337C29.4092 23.8337 31.3389 25.7634 31.3389 28.1441V29.9044C31.3389 31.0034 30.9954 32.0748 30.3564 32.9689C27.3936 37.1151 22.5554 39.1692 15.9998 39.1692C9.44291 39.1692 4.60723 37.1143 1.65143 32.9659C1.01515 32.0729 0.673218 31.0038 0.673218 29.9072V28.1441C0.673218 25.7634 2.60301 23.8337 4.98355 23.8337H27.0287ZM15.9998 0.842682C21.2925 0.842682 25.5831 5.13329 25.5831 10.426C25.5831 15.7188 21.2925 20.0094 15.9998 20.0094C10.707 20.0094 6.41643 15.7188 6.41643 10.426C6.41643 5.13329 10.707 0.842682 15.9998 0.842682Z" fill="#C0ABD9"/>
</svg>
