<svg width="48" height="48" viewBox="0 0 48 48" fill="none" xmlns="http://www.w3.org/2000/svg">
<rect x="0.5" y="0.5" width="47" height="47" rx="14.5" fill="white" stroke="#E8E6EA"/>
<path fill-rule="evenodd" clip-rule="evenodd" d="M32.5059 15.4941C32.7323 15.7204 32.809 16.0565 32.7032 16.3586L27.1616 32.192C27.0487 32.5145 26.7504 32.7354 26.409 32.7493C26.0676 32.7632 25.7523 32.5673 25.6135 32.2551L22.577 25.423L15.7449 22.3865C15.4327 22.2477 15.2368 21.9324 15.2507 21.591C15.2646 21.2496 15.4855 20.9513 15.808 20.8384L31.6414 15.2968C31.9435 15.191 32.2796 15.2677 32.5059 15.4941ZM24.2023 24.9762L26.2828 29.6574L29.9238 19.2547L24.2023 24.9762ZM28.7453 18.0762L18.3426 21.7172L23.0238 23.7977L28.7453 18.0762Z" fill="black" fill-opacity="0.4"/>
</svg>
